<svg width="108" height="108" viewBox="0 0 108 108" fill="none" xmlns="http://www.w3.org/2000/svg">
<g id="2">
<path id="3" d="M107.932 53.9325C107.932 83.7187 83.7861 107.865 53.9999 107.865C24.2138 107.865 0.0673828 83.7187 0.0673828 53.9325C0.0673828 24.1464 24.2138 0 53.9999 0C83.7861 0 107.932 24.1464 107.932 53.9325ZM16.1947 53.9325C16.1947 74.8118 33.1207 91.7378 53.9999 91.7378C74.8792 91.7378 91.8052 74.8118 91.8052 53.9325C91.8052 33.0533 74.8792 16.1273 53.9999 16.1273C33.1207 16.1273 16.1947 33.0533 16.1947 53.9325Z" fill="url(#paint0_angular_1163_148)"/>
<circle id="Ellipse 1" cx="54.5393" cy="99.7752" r="8.08988" fill="#A5193B"/>
</g>
<defs>
<radialGradient id="paint0_angular_1163_148" cx="0" cy="0" r="1" gradientUnits="userSpaceOnUse" gradientTransform="translate(53.9999 53.9325) rotate(90) scale(53.9325)">
<stop stop-color="#A6193C"/>
<stop offset="0.175675" stop-color="#A6193C"/>
<stop offset="1" stop-color="#A6193C" stop-opacity="0"/>
</radialGradient>
</defs>
</svg>
