<svg width="40" height="40" viewBox="0 0 40 40" fill="none" xmlns="http://www.w3.org/2000/svg">
<g id="mdi:donation-outline">
<path id="Vector" d="M26.5 3.27051C22.015 3.27051 18.375 6.91051 18.375 11.3955C18.375 15.8805 22.015 19.5205 26.5 19.5205C30.985 19.5205 34.625 15.8805 34.625 11.3955C34.625 6.91051 30.985 3.27051 26.5 3.27051ZM26.5 16.2705C23.8025 16.2705 21.625 14.093 21.625 11.3955C21.625 8.69801 23.8025 6.52051 26.5 6.52051C29.1975 6.52051 31.375 8.69801 31.375 11.3955C31.375 14.093 29.1975 16.2705 26.5 16.2705ZM31.375 26.0205H28.125C28.125 24.0705 26.9062 22.3155 25.0863 21.633L15.0763 17.8955H2.125V35.7705H11.875V33.4305L23.25 36.583L36.25 32.5205V30.8955C36.25 28.198 34.0725 26.0205 31.375 26.0205ZM8.625 32.5205H5.375V21.1455H8.625V32.5205ZM23.2013 33.1868L11.875 30.083V21.1455H14.4912L23.9487 24.6718C24.5013 24.883 24.875 25.4193 24.875 26.0205C24.875 26.0205 21.625 25.9393 21.1375 25.7768L17.27 24.493L16.2462 27.5805L20.1138 28.8643C20.9425 29.1405 21.8037 29.2705 22.6812 29.2705H31.375C32.0088 29.2705 32.5775 29.6605 32.8375 30.1968L23.2013 33.1868Z" fill="white"/>
</g>
</svg>
