<svg width="28" height="19" viewBox="0 0 28 19" fill="none" xmlns="http://www.w3.org/2000/svg">
<path id="Vector" d="M26.6024 0.762466C26.9091 1.06285 27.0814 1.47003 27.0814 1.89457C27.0814 2.31911 26.9091 2.7263 26.6024 3.02668L10.7702 18.513C10.4631 18.813 10.0468 18.9816 9.61279 18.9816C9.17877 18.9816 8.7625 18.813 8.45541 18.513L1.35822 11.5709C1.06907 11.267 0.911616 10.8653 0.918946 10.4502C0.926276 10.0352 1.09782 9.63904 1.39753 9.34511C1.69802 9.05195 2.10299 8.88416 2.52733 8.87698C2.95167 8.86981 3.36233 9.02383 3.67299 9.30666L9.61279 15.1167L24.2876 0.762466C24.5947 0.462457 25.011 0.293945 25.445 0.293945C25.879 0.293945 26.2953 0.462457 26.6024 0.762466Z" fill="white"/>
</svg>
